<svg height="24" width="24" xmlns="http://www.w3.org/2000/svg"><path d="M15.231 11.231c-.305 0-.527.123-.668.369s-.211.684-.211 1.313v.439c0 .625.066 1.062.199 1.31s.357.372.674.372c.328 0 .576-.146.744-.439V11.7c-.163-.312-.409-.469-.738-.469zM19 3H5a2 2 0 00-2 2v14a2 2 0 002 2h14a2 2 0 002-2V5a2 2 0 00-2-2zm-8.726 13.3l-1.172-2.982L7.937 16.3H5.938l2.051-4.301-2.01-4.23h1.975l1.148 2.93 1.148-2.93h1.975l-2.004 4.23 2.051 4.301zm7.366 0h-1.506l-.076-.645c-.34.508-.777.762-1.313.762-.664 0-1.171-.254-1.521-.762s-.528-1.254-.536-2.238v-.48c0-1.039.176-1.814.527-2.326s.863-.768 1.535-.768c.488 0 .895.211 1.219.633V7.3h1.67v9z"/></svg>